<mxfile host="app.diagrams.net" modified="2023-07-25T00:33:54.581Z" agent="Mozilla/5.0 (Windows NT 10.0; Win64; x64) AppleWebKit/537.36 (KHTML, like Gecko) Chrome/109.0.0.0 Safari/537.36" etag="VNS29aOfl21M6P7jizMT" version="21.6.2" type="github">
  <diagram id="C5RBs43oDa-KdzZeNtuy" name="Page-1">
    <mxGraphModel dx="2261" dy="764" grid="1" gridSize="10" guides="1" tooltips="1" connect="1" arrows="1" fold="1" page="1" pageScale="1" pageWidth="827" pageHeight="1169" math="0" shadow="0">
      <root>
        <mxCell id="WIyWlLk6GJQsqaUBKTNV-0" />
        <mxCell id="WIyWlLk6GJQsqaUBKTNV-1" parent="WIyWlLk6GJQsqaUBKTNV-0" />
        <mxCell id="TH0lavf4MSD1X9bRreIo-23" value="" style="edgeStyle=orthogonalEdgeStyle;rounded=0;sketch=1;hachureGap=4;jiggle=2;curveFitting=1;orthogonalLoop=1;jettySize=auto;html=1;fontFamily=Architects Daughter;fontSource=https%3A%2F%2Ffonts.googleapis.com%2Fcss%3Ffamily%3DArchitects%2BDaughter;fontSize=16;entryX=0.5;entryY=0;entryDx=0;entryDy=0;" parent="WIyWlLk6GJQsqaUBKTNV-1" source="TH0lavf4MSD1X9bRreIo-4" target="TH0lavf4MSD1X9bRreIo-14" edge="1">
          <mxGeometry relative="1" as="geometry">
            <Array as="points">
              <mxPoint x="220" y="170" />
              <mxPoint x="215" y="170" />
            </Array>
          </mxGeometry>
        </mxCell>
        <mxCell id="TH0lavf4MSD1X9bRreIo-4" value="SV" style="rounded=0;whiteSpace=wrap;html=1;sketch=1;hachureGap=4;jiggle=2;curveFitting=1;fontFamily=Architects Daughter;fontSource=https%3A%2F%2Ffonts.googleapis.com%2Fcss%3Ffamily%3DArchitects%2BDaughter;fontSize=20;" parent="WIyWlLk6GJQsqaUBKTNV-1" vertex="1">
          <mxGeometry x="160" y="60" width="110" height="60" as="geometry" />
        </mxCell>
        <mxCell id="TH0lavf4MSD1X9bRreIo-26" value="" style="edgeStyle=orthogonalEdgeStyle;rounded=0;sketch=1;hachureGap=4;jiggle=2;curveFitting=1;orthogonalLoop=1;jettySize=auto;html=1;fontFamily=Architects Daughter;fontSource=https%3A%2F%2Ffonts.googleapis.com%2Fcss%3Ffamily%3DArchitects%2BDaughter;fontSize=16;" parent="WIyWlLk6GJQsqaUBKTNV-1" source="TH0lavf4MSD1X9bRreIo-14" target="TH0lavf4MSD1X9bRreIo-25" edge="1">
          <mxGeometry relative="1" as="geometry" />
        </mxCell>
        <mxCell id="TH0lavf4MSD1X9bRreIo-14" value="Filtering" style="swimlane;fontStyle=0;childLayout=stackLayout;horizontal=1;startSize=30;horizontalStack=0;resizeParent=1;resizeParentMax=0;resizeLast=0;collapsible=1;marginBottom=0;whiteSpace=wrap;html=1;sketch=1;hachureGap=4;jiggle=2;curveFitting=1;fontFamily=Architects Daughter;fontSource=https%3A%2F%2Ffonts.googleapis.com%2Fcss%3Ffamily%3DArchitects%2BDaughter;fontSize=20;" parent="WIyWlLk6GJQsqaUBKTNV-1" vertex="1">
          <mxGeometry x="130" y="160" width="190" height="140" as="geometry" />
        </mxCell>
        <mxCell id="TH0lavf4MSD1X9bRreIo-15" value="1.True set" style="text;strokeColor=none;fillColor=none;align=left;verticalAlign=middle;spacingLeft=4;spacingRight=4;overflow=hidden;points=[[0,0.5],[1,0.5]];portConstraint=eastwest;rotatable=0;whiteSpace=wrap;html=1;fontSize=20;fontFamily=Architects Daughter;" parent="TH0lavf4MSD1X9bRreIo-14" vertex="1">
          <mxGeometry y="30" width="190" height="30" as="geometry" />
        </mxCell>
        <mxCell id="TH0lavf4MSD1X9bRreIo-16" value="2.Simulation set" style="text;strokeColor=none;fillColor=none;align=left;verticalAlign=middle;spacingLeft=4;spacingRight=4;overflow=hidden;points=[[0,0.5],[1,0.5]];portConstraint=eastwest;rotatable=0;whiteSpace=wrap;html=1;fontSize=20;fontFamily=Architects Daughter;" parent="TH0lavf4MSD1X9bRreIo-14" vertex="1">
          <mxGeometry y="60" width="190" height="30" as="geometry" />
        </mxCell>
        <mxCell id="TH0lavf4MSD1X9bRreIo-17" value="3.Difficult regions" style="text;strokeColor=none;fillColor=none;align=left;verticalAlign=middle;spacingLeft=4;spacingRight=4;overflow=hidden;points=[[0,0.5],[1,0.5]];portConstraint=eastwest;rotatable=0;whiteSpace=wrap;html=1;fontSize=20;fontFamily=Architects Daughter;" parent="TH0lavf4MSD1X9bRreIo-14" vertex="1">
          <mxGeometry y="90" width="190" height="50" as="geometry" />
        </mxCell>
        <mxCell id="B3hVIiiZL2IweueDpwZQ-1" value="" style="edgeStyle=orthogonalEdgeStyle;rounded=0;sketch=1;hachureGap=4;jiggle=2;curveFitting=1;orthogonalLoop=1;jettySize=auto;html=1;fontFamily=Architects Daughter;fontSource=https%3A%2F%2Ffonts.googleapis.com%2Fcss%3Ffamily%3DArchitects%2BDaughter;fontSize=16;" edge="1" parent="WIyWlLk6GJQsqaUBKTNV-1" source="TH0lavf4MSD1X9bRreIo-25" target="B3hVIiiZL2IweueDpwZQ-0">
          <mxGeometry relative="1" as="geometry" />
        </mxCell>
        <mxCell id="TH0lavf4MSD1X9bRreIo-25" value="Prioritization (Rare variant)" style="whiteSpace=wrap;html=1;fontSize=20;fontFamily=Architects Daughter;fontStyle=0;startSize=30;sketch=1;hachureGap=4;jiggle=2;curveFitting=1;fontSource=https%3A%2F%2Ffonts.googleapis.com%2Fcss%3Ffamily%3DArchitects%2BDaughter;" parent="WIyWlLk6GJQsqaUBKTNV-1" vertex="1">
          <mxGeometry x="90" y="330" width="270" height="60" as="geometry" />
        </mxCell>
        <mxCell id="B3hVIiiZL2IweueDpwZQ-3" value="" style="edgeStyle=orthogonalEdgeStyle;rounded=0;sketch=1;hachureGap=4;jiggle=2;curveFitting=1;orthogonalLoop=1;jettySize=auto;html=1;fontFamily=Architects Daughter;fontSource=https%3A%2F%2Ffonts.googleapis.com%2Fcss%3Ffamily%3DArchitects%2BDaughter;fontSize=16;" edge="1" parent="WIyWlLk6GJQsqaUBKTNV-1" source="B3hVIiiZL2IweueDpwZQ-0" target="B3hVIiiZL2IweueDpwZQ-2">
          <mxGeometry relative="1" as="geometry" />
        </mxCell>
        <mxCell id="B3hVIiiZL2IweueDpwZQ-5" value="" style="edgeStyle=orthogonalEdgeStyle;rounded=0;sketch=1;hachureGap=4;jiggle=2;curveFitting=1;orthogonalLoop=1;jettySize=auto;html=1;fontFamily=Architects Daughter;fontSource=https%3A%2F%2Ffonts.googleapis.com%2Fcss%3Ffamily%3DArchitects%2BDaughter;fontSize=16;" edge="1" parent="WIyWlLk6GJQsqaUBKTNV-1" source="B3hVIiiZL2IweueDpwZQ-0" target="B3hVIiiZL2IweueDpwZQ-4">
          <mxGeometry relative="1" as="geometry" />
        </mxCell>
        <mxCell id="B3hVIiiZL2IweueDpwZQ-7" value="" style="edgeStyle=orthogonalEdgeStyle;rounded=0;sketch=1;hachureGap=4;jiggle=2;curveFitting=1;orthogonalLoop=1;jettySize=auto;html=1;fontFamily=Architects Daughter;fontSource=https%3A%2F%2Ffonts.googleapis.com%2Fcss%3Ffamily%3DArchitects%2BDaughter;fontSize=16;" edge="1" parent="WIyWlLk6GJQsqaUBKTNV-1" source="B3hVIiiZL2IweueDpwZQ-0" target="B3hVIiiZL2IweueDpwZQ-6">
          <mxGeometry relative="1" as="geometry" />
        </mxCell>
        <mxCell id="B3hVIiiZL2IweueDpwZQ-0" value="AF&amp;lt;0.1%" style="whiteSpace=wrap;html=1;fontSize=20;fontFamily=Architects Daughter;fontStyle=0;startSize=30;sketch=1;hachureGap=4;jiggle=2;curveFitting=1;fontSource=https%3A%2F%2Ffonts.googleapis.com%2Fcss%3Ffamily%3DArchitects%2BDaughter;" vertex="1" parent="WIyWlLk6GJQsqaUBKTNV-1">
          <mxGeometry x="170" y="410" width="120" height="60" as="geometry" />
        </mxCell>
        <mxCell id="B3hVIiiZL2IweueDpwZQ-9" value="" style="edgeStyle=orthogonalEdgeStyle;rounded=0;sketch=1;hachureGap=4;jiggle=2;curveFitting=1;orthogonalLoop=1;jettySize=auto;html=1;fontFamily=Architects Daughter;fontSource=https%3A%2F%2Ffonts.googleapis.com%2Fcss%3Ffamily%3DArchitects%2BDaughter;fontSize=16;" edge="1" parent="WIyWlLk6GJQsqaUBKTNV-1" source="B3hVIiiZL2IweueDpwZQ-2" target="B3hVIiiZL2IweueDpwZQ-8">
          <mxGeometry relative="1" as="geometry" />
        </mxCell>
        <mxCell id="B3hVIiiZL2IweueDpwZQ-2" value="known pathogenic SV" style="whiteSpace=wrap;html=1;fontSize=20;fontFamily=Architects Daughter;fontStyle=0;startSize=30;sketch=1;hachureGap=4;jiggle=2;curveFitting=1;fontSource=https%3A%2F%2Ffonts.googleapis.com%2Fcss%3Ffamily%3DArchitects%2BDaughter;fillColor=#e1d5e7;strokeColor=#9673a6;" vertex="1" parent="WIyWlLk6GJQsqaUBKTNV-1">
          <mxGeometry x="-180" y="410" width="180" height="60" as="geometry" />
        </mxCell>
        <mxCell id="B3hVIiiZL2IweueDpwZQ-19" value="" style="edgeStyle=orthogonalEdgeStyle;rounded=0;sketch=1;hachureGap=4;jiggle=2;curveFitting=1;orthogonalLoop=1;jettySize=auto;html=1;fontFamily=Architects Daughter;fontSource=https%3A%2F%2Ffonts.googleapis.com%2Fcss%3Ffamily%3DArchitects%2BDaughter;fontSize=16;" edge="1" parent="WIyWlLk6GJQsqaUBKTNV-1" source="B3hVIiiZL2IweueDpwZQ-4" target="B3hVIiiZL2IweueDpwZQ-18">
          <mxGeometry relative="1" as="geometry" />
        </mxCell>
        <mxCell id="B3hVIiiZL2IweueDpwZQ-4" value="Coding regions" style="whiteSpace=wrap;html=1;fontSize=20;fontFamily=Architects Daughter;fontStyle=0;startSize=30;sketch=1;hachureGap=4;jiggle=2;curveFitting=1;fontSource=https%3A%2F%2Ffonts.googleapis.com%2Fcss%3Ffamily%3DArchitects%2BDaughter;fillColor=#f8cecc;strokeColor=#b85450;" vertex="1" parent="WIyWlLk6GJQsqaUBKTNV-1">
          <mxGeometry x="170" y="510" width="120" height="60" as="geometry" />
        </mxCell>
        <mxCell id="B3hVIiiZL2IweueDpwZQ-32" value="" style="edgeStyle=orthogonalEdgeStyle;rounded=0;sketch=1;hachureGap=4;jiggle=2;curveFitting=1;orthogonalLoop=1;jettySize=auto;html=1;fontFamily=Architects Daughter;fontSource=https%3A%2F%2Ffonts.googleapis.com%2Fcss%3Ffamily%3DArchitects%2BDaughter;fontSize=16;" edge="1" parent="WIyWlLk6GJQsqaUBKTNV-1" source="B3hVIiiZL2IweueDpwZQ-6" target="B3hVIiiZL2IweueDpwZQ-31">
          <mxGeometry relative="1" as="geometry" />
        </mxCell>
        <mxCell id="B3hVIiiZL2IweueDpwZQ-34" value="" style="edgeStyle=orthogonalEdgeStyle;rounded=0;sketch=1;hachureGap=4;jiggle=2;curveFitting=1;orthogonalLoop=1;jettySize=auto;html=1;fontFamily=Architects Daughter;fontSource=https%3A%2F%2Ffonts.googleapis.com%2Fcss%3Ffamily%3DArchitects%2BDaughter;fontSize=16;" edge="1" parent="WIyWlLk6GJQsqaUBKTNV-1" source="B3hVIiiZL2IweueDpwZQ-6" target="B3hVIiiZL2IweueDpwZQ-33">
          <mxGeometry relative="1" as="geometry" />
        </mxCell>
        <mxCell id="B3hVIiiZL2IweueDpwZQ-6" value="Noncoding regions" style="whiteSpace=wrap;html=1;fontSize=20;fontFamily=Architects Daughter;fontStyle=0;startSize=30;sketch=1;hachureGap=4;jiggle=2;curveFitting=1;fontSource=https%3A%2F%2Ffonts.googleapis.com%2Fcss%3Ffamily%3DArchitects%2BDaughter;" vertex="1" parent="WIyWlLk6GJQsqaUBKTNV-1">
          <mxGeometry x="430" y="410" width="120" height="60" as="geometry" />
        </mxCell>
        <mxCell id="B3hVIiiZL2IweueDpwZQ-25" value="" style="edgeStyle=orthogonalEdgeStyle;rounded=0;sketch=1;hachureGap=4;jiggle=2;curveFitting=1;orthogonalLoop=1;jettySize=auto;html=1;fontFamily=Architects Daughter;fontSource=https%3A%2F%2Ffonts.googleapis.com%2Fcss%3Ffamily%3DArchitects%2BDaughter;fontSize=16;" edge="1" parent="WIyWlLk6GJQsqaUBKTNV-1" source="B3hVIiiZL2IweueDpwZQ-8" target="B3hVIiiZL2IweueDpwZQ-10">
          <mxGeometry relative="1" as="geometry" />
        </mxCell>
        <mxCell id="B3hVIiiZL2IweueDpwZQ-8" value="check Bam&amp;nbsp;" style="whiteSpace=wrap;html=1;fontSize=20;fontFamily=Architects Daughter;fontStyle=0;startSize=30;sketch=1;hachureGap=4;jiggle=2;curveFitting=1;fontSource=https%3A%2F%2Ffonts.googleapis.com%2Fcss%3Ffamily%3DArchitects%2BDaughter;fillColor=#e1d5e7;strokeColor=#9673a6;" vertex="1" parent="WIyWlLk6GJQsqaUBKTNV-1">
          <mxGeometry x="-150" y="500" width="120" height="60" as="geometry" />
        </mxCell>
        <mxCell id="B3hVIiiZL2IweueDpwZQ-10" value="Validation" style="whiteSpace=wrap;html=1;fontSize=20;fontFamily=Architects Daughter;fontStyle=0;startSize=30;sketch=1;hachureGap=4;jiggle=2;curveFitting=1;fontSource=https%3A%2F%2Ffonts.googleapis.com%2Fcss%3Ffamily%3DArchitects%2BDaughter;fillColor=#e1d5e7;strokeColor=#9673a6;" vertex="1" parent="WIyWlLk6GJQsqaUBKTNV-1">
          <mxGeometry x="-150" y="600" width="120" height="60" as="geometry" />
        </mxCell>
        <mxCell id="B3hVIiiZL2IweueDpwZQ-22" value="" style="edgeStyle=orthogonalEdgeStyle;rounded=0;sketch=1;hachureGap=4;jiggle=2;curveFitting=1;orthogonalLoop=1;jettySize=auto;html=1;fontFamily=Architects Daughter;fontSource=https%3A%2F%2Ffonts.googleapis.com%2Fcss%3Ffamily%3DArchitects%2BDaughter;fontSize=16;" edge="1" parent="WIyWlLk6GJQsqaUBKTNV-1" source="B3hVIiiZL2IweueDpwZQ-18" target="B3hVIiiZL2IweueDpwZQ-21">
          <mxGeometry relative="1" as="geometry" />
        </mxCell>
        <mxCell id="B3hVIiiZL2IweueDpwZQ-18" value="Sfari gene list" style="whiteSpace=wrap;html=1;fontSize=20;fontFamily=Architects Daughter;fontStyle=0;startSize=30;sketch=1;hachureGap=4;jiggle=2;curveFitting=1;fontSource=https%3A%2F%2Ffonts.googleapis.com%2Fcss%3Ffamily%3DArchitects%2BDaughter;fillColor=#f8cecc;strokeColor=#b85450;" vertex="1" parent="WIyWlLk6GJQsqaUBKTNV-1">
          <mxGeometry x="170" y="610" width="120" height="60" as="geometry" />
        </mxCell>
        <mxCell id="B3hVIiiZL2IweueDpwZQ-27" value="" style="edgeStyle=orthogonalEdgeStyle;rounded=0;sketch=1;hachureGap=4;jiggle=2;curveFitting=1;orthogonalLoop=1;jettySize=auto;html=1;fontFamily=Architects Daughter;fontSource=https%3A%2F%2Ffonts.googleapis.com%2Fcss%3Ffamily%3DArchitects%2BDaughter;fontSize=16;" edge="1" parent="WIyWlLk6GJQsqaUBKTNV-1" source="B3hVIiiZL2IweueDpwZQ-21" target="B3hVIiiZL2IweueDpwZQ-26">
          <mxGeometry relative="1" as="geometry" />
        </mxCell>
        <mxCell id="B3hVIiiZL2IweueDpwZQ-21" value="Dosage sensitive" style="whiteSpace=wrap;html=1;fontSize=20;fontFamily=Architects Daughter;fontStyle=0;startSize=30;sketch=1;hachureGap=4;jiggle=2;curveFitting=1;fontSource=https%3A%2F%2Ffonts.googleapis.com%2Fcss%3Ffamily%3DArchitects%2BDaughter;fillColor=#f8cecc;strokeColor=#b85450;" vertex="1" parent="WIyWlLk6GJQsqaUBKTNV-1">
          <mxGeometry x="170" y="700" width="120" height="60" as="geometry" />
        </mxCell>
        <mxCell id="B3hVIiiZL2IweueDpwZQ-28" value="" style="edgeStyle=orthogonalEdgeStyle;rounded=0;sketch=1;hachureGap=4;jiggle=2;curveFitting=1;orthogonalLoop=1;jettySize=auto;html=1;fontFamily=Architects Daughter;fontSource=https%3A%2F%2Ffonts.googleapis.com%2Fcss%3Ffamily%3DArchitects%2BDaughter;fontSize=16;" edge="1" parent="WIyWlLk6GJQsqaUBKTNV-1" source="B3hVIiiZL2IweueDpwZQ-23" target="B3hVIiiZL2IweueDpwZQ-18">
          <mxGeometry relative="1" as="geometry" />
        </mxCell>
        <mxCell id="B3hVIiiZL2IweueDpwZQ-23" value="RNAseq" style="whiteSpace=wrap;html=1;fontSize=20;fontFamily=Architects Daughter;fontStyle=0;startSize=30;sketch=1;hachureGap=4;jiggle=2;curveFitting=1;fontSource=https%3A%2F%2Ffonts.googleapis.com%2Fcss%3Ffamily%3DArchitects%2BDaughter;fillColor=#f8cecc;strokeColor=#b85450;" vertex="1" parent="WIyWlLk6GJQsqaUBKTNV-1">
          <mxGeometry x="30" y="610" width="120" height="60" as="geometry" />
        </mxCell>
        <mxCell id="B3hVIiiZL2IweueDpwZQ-30" value="" style="edgeStyle=orthogonalEdgeStyle;rounded=0;sketch=1;hachureGap=4;jiggle=2;curveFitting=1;orthogonalLoop=1;jettySize=auto;html=1;fontFamily=Architects Daughter;fontSource=https%3A%2F%2Ffonts.googleapis.com%2Fcss%3Ffamily%3DArchitects%2BDaughter;fontSize=16;" edge="1" parent="WIyWlLk6GJQsqaUBKTNV-1" source="B3hVIiiZL2IweueDpwZQ-26" target="B3hVIiiZL2IweueDpwZQ-29">
          <mxGeometry relative="1" as="geometry" />
        </mxCell>
        <mxCell id="B3hVIiiZL2IweueDpwZQ-26" value="Public x-Seq data" style="whiteSpace=wrap;html=1;fontSize=20;fontFamily=Architects Daughter;fontStyle=0;startSize=30;sketch=1;hachureGap=4;jiggle=2;curveFitting=1;fontSource=https%3A%2F%2Ffonts.googleapis.com%2Fcss%3Ffamily%3DArchitects%2BDaughter;fillColor=#f8cecc;strokeColor=#b85450;" vertex="1" parent="WIyWlLk6GJQsqaUBKTNV-1">
          <mxGeometry x="170" y="800" width="120" height="60" as="geometry" />
        </mxCell>
        <mxCell id="B3hVIiiZL2IweueDpwZQ-29" value="Discussion" style="whiteSpace=wrap;html=1;fontSize=20;fontFamily=Architects Daughter;fontStyle=0;startSize=30;sketch=1;hachureGap=4;jiggle=2;curveFitting=1;fontSource=https%3A%2F%2Ffonts.googleapis.com%2Fcss%3Ffamily%3DArchitects%2BDaughter;fillColor=#f8cecc;strokeColor=#b85450;" vertex="1" parent="WIyWlLk6GJQsqaUBKTNV-1">
          <mxGeometry x="170" y="890" width="120" height="60" as="geometry" />
        </mxCell>
        <mxCell id="B3hVIiiZL2IweueDpwZQ-36" value="" style="edgeStyle=orthogonalEdgeStyle;rounded=0;sketch=1;hachureGap=4;jiggle=2;curveFitting=1;orthogonalLoop=1;jettySize=auto;html=1;fontFamily=Architects Daughter;fontSource=https%3A%2F%2Ffonts.googleapis.com%2Fcss%3Ffamily%3DArchitects%2BDaughter;fontSize=16;" edge="1" parent="WIyWlLk6GJQsqaUBKTNV-1" source="B3hVIiiZL2IweueDpwZQ-31" target="B3hVIiiZL2IweueDpwZQ-35">
          <mxGeometry relative="1" as="geometry" />
        </mxCell>
        <mxCell id="B3hVIiiZL2IweueDpwZQ-31" value="CRE" style="whiteSpace=wrap;html=1;fontSize=20;fontFamily=Architects Daughter;fontStyle=0;startSize=30;sketch=1;hachureGap=4;jiggle=2;curveFitting=1;fontSource=https%3A%2F%2Ffonts.googleapis.com%2Fcss%3Ffamily%3DArchitects%2BDaughter;fillColor=#d5e8d4;strokeColor=#82b366;" vertex="1" parent="WIyWlLk6GJQsqaUBKTNV-1">
          <mxGeometry x="430" y="500" width="120" height="60" as="geometry" />
        </mxCell>
        <mxCell id="B3hVIiiZL2IweueDpwZQ-42" value="" style="edgeStyle=orthogonalEdgeStyle;rounded=0;sketch=1;hachureGap=4;jiggle=2;curveFitting=1;orthogonalLoop=1;jettySize=auto;html=1;fontFamily=Architects Daughter;fontSource=https%3A%2F%2Ffonts.googleapis.com%2Fcss%3Ffamily%3DArchitects%2BDaughter;fontSize=16;" edge="1" parent="WIyWlLk6GJQsqaUBKTNV-1" source="B3hVIiiZL2IweueDpwZQ-33" target="B3hVIiiZL2IweueDpwZQ-41">
          <mxGeometry relative="1" as="geometry" />
        </mxCell>
        <mxCell id="B3hVIiiZL2IweueDpwZQ-33" value="TAD" style="whiteSpace=wrap;html=1;fontSize=20;fontFamily=Architects Daughter;fontStyle=0;startSize=30;sketch=1;hachureGap=4;jiggle=2;curveFitting=1;fontSource=https%3A%2F%2Ffonts.googleapis.com%2Fcss%3Ffamily%3DArchitects%2BDaughter;fillColor=#d5e8d4;strokeColor=#82b366;" vertex="1" parent="WIyWlLk6GJQsqaUBKTNV-1">
          <mxGeometry x="630" y="410" width="120" height="60" as="geometry" />
        </mxCell>
        <mxCell id="B3hVIiiZL2IweueDpwZQ-38" value="" style="edgeStyle=orthogonalEdgeStyle;rounded=0;sketch=1;hachureGap=4;jiggle=2;curveFitting=1;orthogonalLoop=1;jettySize=auto;html=1;fontFamily=Architects Daughter;fontSource=https%3A%2F%2Ffonts.googleapis.com%2Fcss%3Ffamily%3DArchitects%2BDaughter;fontSize=16;" edge="1" parent="WIyWlLk6GJQsqaUBKTNV-1" source="B3hVIiiZL2IweueDpwZQ-35" target="B3hVIiiZL2IweueDpwZQ-37">
          <mxGeometry relative="1" as="geometry" />
        </mxCell>
        <mxCell id="B3hVIiiZL2IweueDpwZQ-35" value="1.Functional genomics" style="whiteSpace=wrap;html=1;fontSize=20;fontFamily=Architects Daughter;fontStyle=0;startSize=30;sketch=1;hachureGap=4;jiggle=2;curveFitting=1;fontSource=https%3A%2F%2Ffonts.googleapis.com%2Fcss%3Ffamily%3DArchitects%2BDaughter;fillColor=#d5e8d4;strokeColor=#82b366;" vertex="1" parent="WIyWlLk6GJQsqaUBKTNV-1">
          <mxGeometry x="430" y="590" width="120" height="60" as="geometry" />
        </mxCell>
        <mxCell id="B3hVIiiZL2IweueDpwZQ-40" value="" style="edgeStyle=orthogonalEdgeStyle;rounded=0;sketch=1;hachureGap=4;jiggle=2;curveFitting=1;orthogonalLoop=1;jettySize=auto;html=1;fontFamily=Architects Daughter;fontSource=https%3A%2F%2Ffonts.googleapis.com%2Fcss%3Ffamily%3DArchitects%2BDaughter;fontSize=16;" edge="1" parent="WIyWlLk6GJQsqaUBKTNV-1" source="B3hVIiiZL2IweueDpwZQ-37" target="B3hVIiiZL2IweueDpwZQ-39">
          <mxGeometry relative="1" as="geometry" />
        </mxCell>
        <mxCell id="B3hVIiiZL2IweueDpwZQ-37" value="2.Functional genomics" style="whiteSpace=wrap;html=1;fontSize=20;fontFamily=Architects Daughter;fontStyle=0;startSize=30;sketch=1;hachureGap=4;jiggle=2;curveFitting=1;fontSource=https%3A%2F%2Ffonts.googleapis.com%2Fcss%3Ffamily%3DArchitects%2BDaughter;fillColor=#d5e8d4;strokeColor=#82b366;" vertex="1" parent="WIyWlLk6GJQsqaUBKTNV-1">
          <mxGeometry x="430" y="690" width="120" height="60" as="geometry" />
        </mxCell>
        <mxCell id="B3hVIiiZL2IweueDpwZQ-60" value="" style="edgeStyle=orthogonalEdgeStyle;rounded=0;sketch=1;hachureGap=4;jiggle=2;curveFitting=1;orthogonalLoop=1;jettySize=auto;html=1;fontFamily=Architects Daughter;fontSource=https%3A%2F%2Ffonts.googleapis.com%2Fcss%3Ffamily%3DArchitects%2BDaughter;fontSize=16;" edge="1" parent="WIyWlLk6GJQsqaUBKTNV-1" source="B3hVIiiZL2IweueDpwZQ-39" target="B3hVIiiZL2IweueDpwZQ-59">
          <mxGeometry relative="1" as="geometry" />
        </mxCell>
        <mxCell id="B3hVIiiZL2IweueDpwZQ-39" value="Computational validation" style="whiteSpace=wrap;html=1;fontSize=20;fontFamily=Architects Daughter;fontStyle=0;startSize=30;sketch=1;hachureGap=4;jiggle=2;curveFitting=1;fontSource=https%3A%2F%2Ffonts.googleapis.com%2Fcss%3Ffamily%3DArchitects%2BDaughter;fillColor=#d5e8d4;strokeColor=#82b366;" vertex="1" parent="WIyWlLk6GJQsqaUBKTNV-1">
          <mxGeometry x="420" y="790" width="140" height="60" as="geometry" />
        </mxCell>
        <mxCell id="B3hVIiiZL2IweueDpwZQ-44" value="" style="edgeStyle=orthogonalEdgeStyle;rounded=0;sketch=1;hachureGap=4;jiggle=2;curveFitting=1;orthogonalLoop=1;jettySize=auto;html=1;fontFamily=Architects Daughter;fontSource=https%3A%2F%2Ffonts.googleapis.com%2Fcss%3Ffamily%3DArchitects%2BDaughter;fontSize=16;" edge="1" parent="WIyWlLk6GJQsqaUBKTNV-1" source="B3hVIiiZL2IweueDpwZQ-41" target="B3hVIiiZL2IweueDpwZQ-43">
          <mxGeometry relative="1" as="geometry" />
        </mxCell>
        <mxCell id="B3hVIiiZL2IweueDpwZQ-48" value="" style="edgeStyle=orthogonalEdgeStyle;rounded=0;sketch=1;hachureGap=4;jiggle=2;curveFitting=1;orthogonalLoop=1;jettySize=auto;html=1;fontFamily=Architects Daughter;fontSource=https%3A%2F%2Ffonts.googleapis.com%2Fcss%3Ffamily%3DArchitects%2BDaughter;fontSize=16;" edge="1" parent="WIyWlLk6GJQsqaUBKTNV-1" source="B3hVIiiZL2IweueDpwZQ-41" target="B3hVIiiZL2IweueDpwZQ-47">
          <mxGeometry relative="1" as="geometry" />
        </mxCell>
        <mxCell id="B3hVIiiZL2IweueDpwZQ-41" value="inter/intra" style="whiteSpace=wrap;html=1;fontSize=20;fontFamily=Architects Daughter;fontStyle=0;startSize=30;sketch=1;hachureGap=4;jiggle=2;curveFitting=1;fontSource=https%3A%2F%2Ffonts.googleapis.com%2Fcss%3Ffamily%3DArchitects%2BDaughter;fillColor=#d5e8d4;strokeColor=#82b366;" vertex="1" parent="WIyWlLk6GJQsqaUBKTNV-1">
          <mxGeometry x="630" y="510" width="120" height="60" as="geometry" />
        </mxCell>
        <mxCell id="B3hVIiiZL2IweueDpwZQ-50" value="" style="edgeStyle=orthogonalEdgeStyle;rounded=0;sketch=1;hachureGap=4;jiggle=2;curveFitting=1;orthogonalLoop=1;jettySize=auto;html=1;fontFamily=Architects Daughter;fontSource=https%3A%2F%2Ffonts.googleapis.com%2Fcss%3Ffamily%3DArchitects%2BDaughter;fontSize=16;" edge="1" parent="WIyWlLk6GJQsqaUBKTNV-1" source="B3hVIiiZL2IweueDpwZQ-43" target="B3hVIiiZL2IweueDpwZQ-49">
          <mxGeometry relative="1" as="geometry" />
        </mxCell>
        <mxCell id="B3hVIiiZL2IweueDpwZQ-43" value="TAD border" style="whiteSpace=wrap;html=1;fontSize=20;fontFamily=Architects Daughter;fontStyle=0;startSize=30;sketch=1;hachureGap=4;jiggle=2;curveFitting=1;fontSource=https%3A%2F%2Ffonts.googleapis.com%2Fcss%3Ffamily%3DArchitects%2BDaughter;fillColor=#d5e8d4;strokeColor=#82b366;" vertex="1" parent="WIyWlLk6GJQsqaUBKTNV-1">
          <mxGeometry x="630" y="610" width="120" height="60" as="geometry" />
        </mxCell>
        <mxCell id="B3hVIiiZL2IweueDpwZQ-54" value="" style="edgeStyle=orthogonalEdgeStyle;rounded=0;sketch=1;hachureGap=4;jiggle=2;curveFitting=1;orthogonalLoop=1;jettySize=auto;html=1;fontFamily=Architects Daughter;fontSource=https%3A%2F%2Ffonts.googleapis.com%2Fcss%3Ffamily%3DArchitects%2BDaughter;fontSize=16;" edge="1" parent="WIyWlLk6GJQsqaUBKTNV-1" source="B3hVIiiZL2IweueDpwZQ-47" target="B3hVIiiZL2IweueDpwZQ-53">
          <mxGeometry relative="1" as="geometry" />
        </mxCell>
        <mxCell id="B3hVIiiZL2IweueDpwZQ-47" value="abundant CRE/gene" style="whiteSpace=wrap;html=1;fontSize=20;fontFamily=Architects Daughter;fontStyle=0;startSize=30;sketch=1;hachureGap=4;jiggle=2;curveFitting=1;fontSource=https%3A%2F%2Ffonts.googleapis.com%2Fcss%3Ffamily%3DArchitects%2BDaughter;fillColor=#d5e8d4;strokeColor=#82b366;" vertex="1" parent="WIyWlLk6GJQsqaUBKTNV-1">
          <mxGeometry x="830" y="510" width="120" height="60" as="geometry" />
        </mxCell>
        <mxCell id="B3hVIiiZL2IweueDpwZQ-52" value="" style="edgeStyle=orthogonalEdgeStyle;rounded=0;sketch=1;hachureGap=4;jiggle=2;curveFitting=1;orthogonalLoop=1;jettySize=auto;html=1;fontFamily=Architects Daughter;fontSource=https%3A%2F%2Ffonts.googleapis.com%2Fcss%3Ffamily%3DArchitects%2BDaughter;fontSize=16;" edge="1" parent="WIyWlLk6GJQsqaUBKTNV-1" source="B3hVIiiZL2IweueDpwZQ-49" target="B3hVIiiZL2IweueDpwZQ-51">
          <mxGeometry relative="1" as="geometry" />
        </mxCell>
        <mxCell id="B3hVIiiZL2IweueDpwZQ-49" value="CRE" style="whiteSpace=wrap;html=1;fontSize=20;fontFamily=Architects Daughter;fontStyle=0;startSize=30;sketch=1;hachureGap=4;jiggle=2;curveFitting=1;fontSource=https%3A%2F%2Ffonts.googleapis.com%2Fcss%3Ffamily%3DArchitects%2BDaughter;fillColor=#d5e8d4;strokeColor=#82b366;" vertex="1" parent="WIyWlLk6GJQsqaUBKTNV-1">
          <mxGeometry x="630" y="700" width="120" height="60" as="geometry" />
        </mxCell>
        <mxCell id="B3hVIiiZL2IweueDpwZQ-62" value="" style="edgeStyle=orthogonalEdgeStyle;rounded=0;sketch=1;hachureGap=4;jiggle=2;curveFitting=1;orthogonalLoop=1;jettySize=auto;html=1;fontFamily=Architects Daughter;fontSource=https%3A%2F%2Ffonts.googleapis.com%2Fcss%3Ffamily%3DArchitects%2BDaughter;fontSize=16;" edge="1" parent="WIyWlLk6GJQsqaUBKTNV-1" source="B3hVIiiZL2IweueDpwZQ-51" target="B3hVIiiZL2IweueDpwZQ-61">
          <mxGeometry relative="1" as="geometry" />
        </mxCell>
        <mxCell id="B3hVIiiZL2IweueDpwZQ-51" value="Target" style="whiteSpace=wrap;html=1;fontSize=20;fontFamily=Architects Daughter;fontStyle=0;startSize=30;sketch=1;hachureGap=4;jiggle=2;curveFitting=1;fontSource=https%3A%2F%2Ffonts.googleapis.com%2Fcss%3Ffamily%3DArchitects%2BDaughter;fillColor=#d5e8d4;strokeColor=#82b366;" vertex="1" parent="WIyWlLk6GJQsqaUBKTNV-1">
          <mxGeometry x="630" y="790" width="120" height="60" as="geometry" />
        </mxCell>
        <mxCell id="B3hVIiiZL2IweueDpwZQ-56" value="" style="edgeStyle=orthogonalEdgeStyle;rounded=0;sketch=1;hachureGap=4;jiggle=2;curveFitting=1;orthogonalLoop=1;jettySize=auto;html=1;fontFamily=Architects Daughter;fontSource=https%3A%2F%2Ffonts.googleapis.com%2Fcss%3Ffamily%3DArchitects%2BDaughter;fontSize=16;" edge="1" parent="WIyWlLk6GJQsqaUBKTNV-1" source="B3hVIiiZL2IweueDpwZQ-53" target="B3hVIiiZL2IweueDpwZQ-55">
          <mxGeometry relative="1" as="geometry" />
        </mxCell>
        <mxCell id="B3hVIiiZL2IweueDpwZQ-53" value="RNAseq" style="whiteSpace=wrap;html=1;fontSize=20;fontFamily=Architects Daughter;fontStyle=0;startSize=30;sketch=1;hachureGap=4;jiggle=2;curveFitting=1;fontSource=https%3A%2F%2Ffonts.googleapis.com%2Fcss%3Ffamily%3DArchitects%2BDaughter;fillColor=#d5e8d4;strokeColor=#82b366;" vertex="1" parent="WIyWlLk6GJQsqaUBKTNV-1">
          <mxGeometry x="830" y="610" width="120" height="60" as="geometry" />
        </mxCell>
        <mxCell id="B3hVIiiZL2IweueDpwZQ-58" value="" style="edgeStyle=orthogonalEdgeStyle;rounded=0;sketch=1;hachureGap=4;jiggle=2;curveFitting=1;orthogonalLoop=1;jettySize=auto;html=1;fontFamily=Architects Daughter;fontSource=https%3A%2F%2Ffonts.googleapis.com%2Fcss%3Ffamily%3DArchitects%2BDaughter;fontSize=16;" edge="1" parent="WIyWlLk6GJQsqaUBKTNV-1" source="B3hVIiiZL2IweueDpwZQ-55" target="B3hVIiiZL2IweueDpwZQ-57">
          <mxGeometry relative="1" as="geometry" />
        </mxCell>
        <mxCell id="B3hVIiiZL2IweueDpwZQ-55" value="CRE" style="whiteSpace=wrap;html=1;fontSize=20;fontFamily=Architects Daughter;fontStyle=0;startSize=30;sketch=1;hachureGap=4;jiggle=2;curveFitting=1;fontSource=https%3A%2F%2Ffonts.googleapis.com%2Fcss%3Ffamily%3DArchitects%2BDaughter;fillColor=#d5e8d4;strokeColor=#82b366;" vertex="1" parent="WIyWlLk6GJQsqaUBKTNV-1">
          <mxGeometry x="830" y="700" width="120" height="60" as="geometry" />
        </mxCell>
        <mxCell id="B3hVIiiZL2IweueDpwZQ-64" value="" style="edgeStyle=orthogonalEdgeStyle;rounded=0;sketch=1;hachureGap=4;jiggle=2;curveFitting=1;orthogonalLoop=1;jettySize=auto;html=1;fontFamily=Architects Daughter;fontSource=https%3A%2F%2Ffonts.googleapis.com%2Fcss%3Ffamily%3DArchitects%2BDaughter;fontSize=16;" edge="1" parent="WIyWlLk6GJQsqaUBKTNV-1" source="B3hVIiiZL2IweueDpwZQ-57" target="B3hVIiiZL2IweueDpwZQ-63">
          <mxGeometry relative="1" as="geometry" />
        </mxCell>
        <mxCell id="B3hVIiiZL2IweueDpwZQ-57" value="Target" style="whiteSpace=wrap;html=1;fontSize=20;fontFamily=Architects Daughter;fontStyle=0;startSize=30;sketch=1;hachureGap=4;jiggle=2;curveFitting=1;fontSource=https%3A%2F%2Ffonts.googleapis.com%2Fcss%3Ffamily%3DArchitects%2BDaughter;fillColor=#d5e8d4;strokeColor=#82b366;" vertex="1" parent="WIyWlLk6GJQsqaUBKTNV-1">
          <mxGeometry x="830" y="790" width="120" height="60" as="geometry" />
        </mxCell>
        <mxCell id="B3hVIiiZL2IweueDpwZQ-59" value="Validation" style="whiteSpace=wrap;html=1;fontSize=20;fontFamily=Architects Daughter;fontStyle=0;startSize=30;sketch=1;hachureGap=4;jiggle=2;curveFitting=1;fontSource=https%3A%2F%2Ffonts.googleapis.com%2Fcss%3Ffamily%3DArchitects%2BDaughter;fillColor=#d5e8d4;strokeColor=#82b366;" vertex="1" parent="WIyWlLk6GJQsqaUBKTNV-1">
          <mxGeometry x="420" y="890" width="140" height="60" as="geometry" />
        </mxCell>
        <mxCell id="B3hVIiiZL2IweueDpwZQ-61" value="Validation" style="whiteSpace=wrap;html=1;fontSize=20;fontFamily=Architects Daughter;fontStyle=0;startSize=30;sketch=1;hachureGap=4;jiggle=2;curveFitting=1;fontSource=https%3A%2F%2Ffonts.googleapis.com%2Fcss%3Ffamily%3DArchitects%2BDaughter;fillColor=#d5e8d4;strokeColor=#82b366;" vertex="1" parent="WIyWlLk6GJQsqaUBKTNV-1">
          <mxGeometry x="630" y="890" width="120" height="60" as="geometry" />
        </mxCell>
        <mxCell id="B3hVIiiZL2IweueDpwZQ-63" value="Validation" style="whiteSpace=wrap;html=1;fontSize=20;fontFamily=Architects Daughter;fontStyle=0;startSize=30;sketch=1;hachureGap=4;jiggle=2;curveFitting=1;fontSource=https%3A%2F%2Ffonts.googleapis.com%2Fcss%3Ffamily%3DArchitects%2BDaughter;fillColor=#d5e8d4;strokeColor=#82b366;" vertex="1" parent="WIyWlLk6GJQsqaUBKTNV-1">
          <mxGeometry x="830" y="890" width="120" height="60" as="geometry" />
        </mxCell>
      </root>
    </mxGraphModel>
  </diagram>
</mxfile>
